<svg width="512" height="512" viewBox="0 0 512 512" fill="none" xmlns="http://www.w3.org/2000/svg">
  <!-- Background Circle -->
  <circle cx="256" cy="256" r="240" fill="#000000"/>
  
  <!-- Calendar Icon -->
  <rect x="160" y="140" width="192" height="160" rx="8" fill="white"/>
  <rect x="160" y="140" width="192" height="40" rx="8" fill="#3b82f6"/>
  
  <!-- Calendar Header Lines -->
  <line x1="200" y1="160" x2="200" y2="180" stroke="white" stroke-width="3" stroke-linecap="round"/>
  <line x1="240" y1="160" x2="240" y2="180" stroke="white" stroke-width="3" stroke-linecap="round"/>
  <line x1="280" y1="160" x2="280" y2="180" stroke="white" stroke-width="3" stroke-linecap="round"/>
  <line x1="320" y1="160" x2="320" y2="180" stroke="white" stroke-width="3" stroke-linecap="round"/>
  
  <!-- Calendar Grid -->
  <g stroke="#6b7280" stroke-width="2">
    <!-- Vertical lines -->
    <line x1="200" y1="200" x2="200" y2="300"/>
    <line x1="240" y1="200" x2="240" y2="300"/>
    <line x1="280" y1="200" x2="280" y2="300"/>
    <line x1="320" y1="200" x2="320" y2="300"/>
    <!-- Horizontal lines -->
    <line x1="160" y1="220" x2="352" y2="220"/>
    <line x1="160" y1="240" x2="352" y2="240"/>
    <line x1="160" y1="260" x2="352" y2="260"/>
    <line x1="160" y1="280" x2="352" y2="280"/>
  </g>
  
  <!-- Meeting Dots -->
  <circle cx="200" cy="230" r="4" fill="#ef4444"/>
  <circle cx="240" cy="250" r="4" fill="#10b981"/>
  <circle cx="280" cy="270" r="4" fill="#f59e0b"/>
  <circle cx="320" cy="230" r="4" fill="#8b5cf6"/>
</svg>




